<svg xmlns="http://www.w3.org/2000/svg" xmlns:xlink="http://www.w3.org/1999/xlink" width="500" zoomAndPan="magnify" viewBox="125 120 120 120" height="150" preserveAspectRatio="xMidYMid meet" version="1.0"><defs><g/><clipPath id="7fda7c559a"><path d="M 32.78125 158.386719 L 38.996094 158.386719 L 38.996094 212.242188 L 32.78125 212.242188 Z M 32.78125 158.386719 " clip-rule="nonzero"/></clipPath><clipPath id="9817938d03"><path d="M 44.085938 158.027344 L 50.261719 158.027344 L 50.261719 198.90625 L 44.085938 198.90625 Z M 44.085938 158.027344 " clip-rule="nonzero"/></clipPath><clipPath id="7ceda4700c"><path d="M 34 195 L 51 195 L 51 213 L 34 213 Z M 34 195 " clip-rule="nonzero"/></clipPath><clipPath id="079db207a5"><path d="M 46.105469 195.578125 L 50.21875 198.992188 L 38.628906 212.960938 L 34.515625 209.546875 Z M 46.105469 195.578125 " clip-rule="nonzero"/></clipPath><clipPath id="e555f0b086"><path d="M 32 202 L 44 202 L 44 220 L 32 220 Z M 32 202 " clip-rule="nonzero"/></clipPath><clipPath id="fdc2b4f6ac"><path d="M 38.464844 222.132812 L 27.144531 218.09375 L 32.710938 202.476562 L 44.035156 206.511719 Z M 38.464844 222.132812 " clip-rule="nonzero"/></clipPath><clipPath id="32572d8dca"><path d="M 38.464844 222.132812 L 27.144531 218.09375 L 32.710938 202.476562 L 44.035156 206.511719 Z M 38.464844 222.132812 " clip-rule="nonzero"/></clipPath><clipPath id="f29a2e0afb"><path d="M 32 202 L 45 202 L 45 221 L 32 221 Z M 32 202 " clip-rule="nonzero"/></clipPath><clipPath id="f6b1c9a23b"><path d="M 38.464844 222.132812 L 27.144531 218.09375 L 32.710938 202.476562 L 44.035156 206.511719 Z M 38.464844 222.132812 " clip-rule="nonzero"/></clipPath><clipPath id="27a97fd76d"><path d="M 38.464844 222.132812 L 27.144531 218.09375 L 32.710938 202.476562 L 44.035156 206.511719 Z M 38.464844 222.132812 " clip-rule="nonzero"/></clipPath><clipPath id="5a7120369d"><path d="M 49.1875 197.90625 L 50.246094 197.90625 L 50.246094 199 L 49.1875 199 Z M 49.1875 197.90625 " clip-rule="nonzero"/></clipPath><clipPath id="a1a6256fe3"><path d="M 44.082031 154.496094 L 56.851562 154.496094 L 56.851562 159.839844 L 44.082031 159.839844 Z M 44.082031 154.496094 " clip-rule="nonzero"/></clipPath><clipPath id="951cb6da35"><path d="M 0 154.496094 L 38.992188 154.496094 L 38.992188 159.84375 L 0 159.84375 Z M 0 154.496094 " clip-rule="nonzero"/></clipPath></defs><g fill="#000000" fill-opacity="1"><g transform="translate(237.863178, 192.621338)"><g><path d="M 4.484375 -0.765625 C 4.285156 -0.753906 4.113281 -0.789062 3.96875 -0.875 C 3.820312 -0.957031 3.71875 -1.085938 3.65625 -1.265625 C 3.632812 -1.378906 3.601562 -1.488281 3.5625 -1.59375 C 3.53125 -1.695312 3.515625 -1.796875 3.515625 -1.890625 L 3.515625 -2.296875 L 3.59375 -4.109375 C 3.613281 -4.296875 3.628906 -4.484375 3.640625 -4.671875 C 3.648438 -4.867188 3.644531 -5.078125 3.625 -5.296875 C 3.59375 -5.285156 3.5625 -5.269531 3.53125 -5.25 C 3.5 -5.238281 3.46875 -5.21875 3.4375 -5.1875 L 1.859375 -3.640625 L 0.15625 -1.96875 C 0.0507812 -1.863281 -0.0546875 -1.765625 -0.171875 -1.671875 C -0.296875 -1.585938 -0.414062 -1.492188 -0.53125 -1.390625 C -0.664062 -1.273438 -0.820312 -1.179688 -1 -1.109375 C -1.175781 -1.035156 -1.328125 -1.035156 -1.453125 -1.109375 C -1.585938 -1.191406 -1.660156 -1.316406 -1.671875 -1.484375 C -1.691406 -1.597656 -1.6875 -1.71875 -1.65625 -1.84375 C -1.625 -1.96875 -1.585938 -2.085938 -1.546875 -2.203125 C -1.453125 -2.453125 -1.359375 -2.691406 -1.265625 -2.921875 C -1.171875 -3.148438 -1.070312 -3.382812 -0.96875 -3.625 L -0.46875 -4.828125 C -0.4375 -4.890625 -0.421875 -4.988281 -0.421875 -5.125 C -0.421875 -5.15625 -0.425781 -5.179688 -0.4375 -5.203125 C -0.457031 -5.234375 -0.46875 -5.257812 -0.46875 -5.28125 C -0.46875 -5.375 -0.453125 -5.460938 -0.421875 -5.546875 C -0.390625 -5.640625 -0.351562 -5.734375 -0.3125 -5.828125 C -0.21875 -6.003906 -0.113281 -6.179688 0 -6.359375 C 0.101562 -6.535156 0.207031 -6.710938 0.3125 -6.890625 C 0.53125 -7.242188 0.734375 -7.609375 0.921875 -7.984375 C 1.117188 -8.359375 1.359375 -8.707031 1.640625 -9.03125 C 1.691406 -9.101562 1.742188 -9.164062 1.796875 -9.21875 C 1.847656 -9.28125 1.894531 -9.34375 1.9375 -9.40625 C 2 -9.488281 2.097656 -9.5625 2.234375 -9.625 C 2.253906 -9.632812 2.296875 -9.640625 2.359375 -9.640625 C 2.460938 -9.640625 2.5625 -9.609375 2.65625 -9.546875 C 2.75 -9.492188 2.804688 -9.414062 2.828125 -9.3125 L 2.84375 -9.203125 C 2.863281 -9.140625 2.863281 -9.078125 2.84375 -9.015625 C 2.832031 -8.960938 2.8125 -8.914062 2.78125 -8.875 C 2.71875 -8.769531 2.664062 -8.671875 2.625 -8.578125 C 2.59375 -8.484375 2.554688 -8.398438 2.515625 -8.328125 C 2.003906 -7.410156 1.5 -6.492188 1 -5.578125 C 0.507812 -4.671875 0.03125 -3.753906 -0.4375 -2.828125 L -0.703125 -2.296875 C -0.628906 -2.265625 -0.582031 -2.265625 -0.5625 -2.296875 C -0.539062 -2.328125 -0.519531 -2.347656 -0.5 -2.359375 L 1.03125 -3.890625 C 1.3125 -4.160156 1.601562 -4.425781 1.90625 -4.6875 C 2.207031 -4.945312 2.492188 -5.238281 2.765625 -5.5625 C 2.816406 -5.632812 2.882812 -5.695312 2.96875 -5.75 C 3.050781 -5.800781 3.128906 -5.863281 3.203125 -5.9375 C 3.242188 -5.976562 3.285156 -6.019531 3.328125 -6.0625 C 3.378906 -6.113281 3.429688 -6.140625 3.484375 -6.140625 C 3.523438 -6.140625 3.5625 -6.144531 3.59375 -6.15625 C 3.632812 -6.175781 3.671875 -6.1875 3.703125 -6.1875 C 3.984375 -6.1875 4.175781 -6.046875 4.28125 -5.765625 C 4.351562 -5.585938 4.390625 -5.414062 4.390625 -5.25 C 4.390625 -4.957031 4.375 -4.671875 4.34375 -4.390625 C 4.3125 -4.109375 4.289062 -3.820312 4.28125 -3.53125 C 4.269531 -3.289062 4.257812 -3.0625 4.25 -2.84375 C 4.238281 -2.625 4.234375 -2.40625 4.234375 -2.1875 C 4.234375 -2.09375 4.222656 -2 4.203125 -1.90625 C 4.191406 -1.820312 4.210938 -1.742188 4.265625 -1.671875 C 4.285156 -1.628906 4.304688 -1.59375 4.328125 -1.5625 C 4.359375 -1.53125 4.390625 -1.492188 4.421875 -1.453125 C 4.546875 -1.492188 4.660156 -1.554688 4.765625 -1.640625 C 4.867188 -1.722656 4.960938 -1.816406 5.046875 -1.921875 C 5.179688 -2.066406 5.316406 -2.21875 5.453125 -2.375 C 5.585938 -2.53125 5.707031 -2.679688 5.8125 -2.828125 C 6.257812 -3.460938 6.710938 -4.097656 7.171875 -4.734375 C 7.640625 -5.367188 8.085938 -6.003906 8.515625 -6.640625 L 9.21875 -7.6875 C 9.125 -7.726562 9.039062 -7.769531 8.96875 -7.8125 C 8.8125 -7.914062 8.765625 -8.039062 8.828125 -8.1875 C 8.890625 -8.320312 9 -8.441406 9.15625 -8.546875 C 9.320312 -8.648438 9.484375 -8.703125 9.640625 -8.703125 C 9.671875 -8.703125 9.707031 -8.703125 9.75 -8.703125 C 9.800781 -8.710938 9.835938 -8.710938 9.859375 -8.703125 C 10.085938 -8.640625 10.210938 -8.5 10.234375 -8.28125 C 10.253906 -8.21875 10.257812 -8.148438 10.25 -8.078125 C 10.238281 -8.003906 10.210938 -7.9375 10.171875 -7.875 C 10.140625 -7.832031 10.109375 -7.785156 10.078125 -7.734375 C 10.054688 -7.679688 10.019531 -7.628906 9.96875 -7.578125 C 9.394531 -6.847656 8.851562 -6.09375 8.34375 -5.3125 C 7.832031 -4.539062 7.3125 -3.765625 6.78125 -2.984375 C 6.632812 -2.773438 6.472656 -2.566406 6.296875 -2.359375 C 6.128906 -2.148438 5.96875 -1.945312 5.8125 -1.75 C 5.707031 -1.625 5.59375 -1.507812 5.46875 -1.40625 C 5.351562 -1.3125 5.238281 -1.203125 5.125 -1.078125 C 4.925781 -0.890625 4.710938 -0.785156 4.484375 -0.765625 Z M 4.484375 -0.765625 "/></g></g></g><g fill="#000000" fill-opacity="1"><g transform="translate(249.891937, 192.621338)"><g><path d="M 2.734375 -9.484375 C 2.597656 -9.578125 2.554688 -9.710938 2.609375 -9.890625 C 2.640625 -10.035156 2.675781 -10.175781 2.71875 -10.3125 C 2.769531 -10.457031 2.84375 -10.585938 2.9375 -10.703125 C 3.039062 -10.835938 3.171875 -10.921875 3.328125 -10.953125 C 3.472656 -10.972656 3.585938 -10.914062 3.671875 -10.78125 C 3.765625 -10.65625 3.785156 -10.535156 3.734375 -10.421875 C 3.597656 -10.109375 3.390625 -9.8125 3.109375 -9.53125 C 2.992188 -9.414062 2.867188 -9.398438 2.734375 -9.484375 Z M 1.03125 -2.203125 C 0.882812 -2.203125 0.738281 -2.207031 0.59375 -2.21875 C 0.457031 -2.238281 0.328125 -2.269531 0.203125 -2.3125 C -0.472656 -2.539062 -0.8125 -3.015625 -0.8125 -3.734375 C -0.8125 -3.890625 -0.789062 -4.039062 -0.75 -4.1875 C -0.71875 -4.34375 -0.679688 -4.492188 -0.640625 -4.640625 C -0.597656 -4.765625 -0.550781 -4.890625 -0.5 -5.015625 C -0.445312 -5.140625 -0.390625 -5.265625 -0.328125 -5.390625 C -0.171875 -5.722656 0.015625 -6.039062 0.234375 -6.34375 C 0.460938 -6.644531 0.671875 -6.957031 0.859375 -7.28125 C 0.890625 -7.34375 0.925781 -7.394531 0.96875 -7.4375 C 1.007812 -7.476562 1.054688 -7.523438 1.109375 -7.578125 C 1.179688 -7.648438 1.269531 -7.6875 1.375 -7.6875 C 1.394531 -7.6875 1.421875 -7.675781 1.453125 -7.65625 C 1.484375 -7.644531 1.515625 -7.628906 1.546875 -7.609375 C 1.628906 -7.597656 1.671875 -7.523438 1.671875 -7.390625 C 1.671875 -7.335938 1.648438 -7.265625 1.609375 -7.171875 L 1.546875 -7.0625 C 1.367188 -6.769531 1.195312 -6.5 1.03125 -6.25 L 1 -6.1875 C 0.757812 -5.976562 0.578125 -5.734375 0.453125 -5.453125 C 0.328125 -5.179688 0.207031 -4.910156 0.09375 -4.640625 C 0.03125 -4.492188 -0.015625 -4.34375 -0.046875 -4.1875 C -0.0859375 -4.03125 -0.109375 -3.867188 -0.109375 -3.703125 C -0.109375 -3.484375 -0.0507812 -3.300781 0.0625 -3.15625 C 0.1875 -3.007812 0.363281 -2.9375 0.59375 -2.9375 C 0.664062 -2.9375 0.742188 -2.929688 0.828125 -2.921875 C 0.910156 -2.910156 0.988281 -2.90625 1.0625 -2.90625 C 1.21875 -2.90625 1.382812 -2.914062 1.5625 -2.9375 C 1.738281 -2.96875 1.910156 -3.007812 2.078125 -3.0625 C 2.585938 -3.226562 3.066406 -3.40625 3.515625 -3.59375 C 4.023438 -3.8125 4.519531 -4.054688 5 -4.328125 C 5.476562 -4.609375 5.957031 -4.863281 6.4375 -5.09375 C 6.53125 -5.144531 6.617188 -5.195312 6.703125 -5.25 C 6.796875 -5.3125 6.875 -5.382812 6.9375 -5.46875 C 7.019531 -5.570312 7.109375 -5.625 7.203125 -5.625 C 7.222656 -5.625 7.25 -5.613281 7.28125 -5.59375 C 7.320312 -5.582031 7.367188 -5.566406 7.421875 -5.546875 C 7.503906 -5.492188 7.546875 -5.390625 7.546875 -5.234375 C 7.546875 -5.210938 7.550781 -5.179688 7.5625 -5.140625 C 7.570312 -5.109375 7.5625 -5.078125 7.53125 -5.046875 C 7.46875 -4.953125 7.40625 -4.890625 7.34375 -4.859375 C 7.289062 -4.816406 7.238281 -4.769531 7.1875 -4.71875 C 7.144531 -4.675781 7.085938 -4.640625 7.015625 -4.609375 C 6.335938 -4.285156 5.671875 -3.929688 5.015625 -3.546875 C 4.367188 -3.171875 3.691406 -2.863281 2.984375 -2.625 C 2.785156 -2.5625 2.582031 -2.5 2.375 -2.4375 C 2.175781 -2.375 1.972656 -2.328125 1.765625 -2.296875 Z M 1.03125 -2.203125 "/></g></g></g><g fill="#000000" fill-opacity="1"><g transform="translate(257.175407, 192.621338)"><g><path d="M 32.59375 -26.953125 C 32.789062 -26.921875 32.890625 -26.816406 32.890625 -26.640625 L 32.890625 -26.625 C 32.890625 -26.488281 32.804688 -26.375 32.640625 -26.28125 C 32.597656 -26.269531 32.550781 -26.253906 32.5 -26.234375 C 32.445312 -26.222656 32.40625 -26.210938 32.375 -26.203125 C 32.09375 -26.097656 31.796875 -26.035156 31.484375 -26.015625 C 31.171875 -25.992188 30.859375 -25.984375 30.546875 -25.984375 C 30.191406 -25.984375 29.988281 -26.003906 29.9375 -26.046875 C 29.882812 -26.085938 29.800781 -26.210938 29.6875 -26.421875 L 29.296875 -26.421875 C 28.785156 -26.421875 28.285156 -26.414062 27.796875 -26.40625 C 27.304688 -26.394531 26.8125 -26.382812 26.3125 -26.375 L 16.84375 -26.15625 C 16.351562 -26.144531 15.867188 -26.128906 15.390625 -26.109375 C 14.910156 -26.097656 14.421875 -26.09375 13.921875 -26.09375 L 13.625 -26.09375 C 13.5625 -26.03125 13.5 -25.957031 13.4375 -25.875 C 12.539062 -24.53125 11.625 -23.207031 10.6875 -21.90625 C 9.757812 -20.613281 8.820312 -19.316406 7.875 -18.015625 C 7.5 -17.460938 7.132812 -16.898438 6.78125 -16.328125 C 6.4375 -15.753906 6.066406 -15.210938 5.671875 -14.703125 C 5.628906 -14.640625 5.546875 -14.507812 5.421875 -14.3125 C 5.296875 -14.113281 5.175781 -13.914062 5.0625 -13.71875 C 4.957031 -13.53125 4.878906 -13.398438 4.828125 -13.328125 C 3.492188 -10.898438 2.140625 -8.488281 0.765625 -6.09375 C -0.609375 -3.695312 -1.882812 -1.222656 -3.0625 1.328125 C -3.5625 2.398438 -4.082031 3.457031 -4.625 4.5 C -5.175781 5.539062 -5.671875 6.613281 -6.109375 7.71875 C -6.171875 7.882812 -6.238281 8.050781 -6.3125 8.21875 C -6.382812 8.382812 -6.453125 8.550781 -6.515625 8.71875 C -6.554688 8.851562 -6.644531 8.921875 -6.78125 8.921875 C -6.957031 8.921875 -7.046875 8.832031 -7.046875 8.65625 C -7.046875 8.5625 -7.03125 8.472656 -7 8.390625 C -6.96875 8.316406 -6.9375 8.242188 -6.90625 8.171875 L -6.15625 6.5625 C -5.394531 4.925781 -4.625 3.285156 -3.84375 1.640625 C -3.0625 0.00390625 -2.257812 -1.613281 -1.4375 -3.21875 C -0.5625 -4.894531 0.34375 -6.5625 1.28125 -8.21875 C 2.21875 -9.875 3.160156 -11.523438 4.109375 -13.171875 C 4.253906 -13.421875 4.394531 -13.671875 4.53125 -13.921875 C 4.675781 -14.171875 4.8125 -14.429688 4.9375 -14.703125 C 5.175781 -15.171875 5.457031 -15.648438 5.78125 -16.140625 C 6.207031 -16.753906 6.613281 -17.375 7 -18 C 7.382812 -18.632812 7.757812 -19.269531 8.125 -19.90625 L 11.515625 -25.578125 C 11.566406 -25.648438 11.613281 -25.71875 11.65625 -25.78125 C 11.695312 -25.84375 11.75 -25.914062 11.8125 -26 C 11.75 -26.007812 11.703125 -26.019531 11.671875 -26.03125 C 11.640625 -26.039062 11.613281 -26.046875 11.59375 -26.046875 L 8.390625 -25.953125 C 8.003906 -25.941406 7.613281 -25.925781 7.21875 -25.90625 C 6.832031 -25.882812 6.445312 -25.863281 6.0625 -25.84375 L 3.15625 -25.734375 C 2.726562 -25.722656 2.296875 -25.695312 1.859375 -25.65625 C 1.429688 -25.625 1.003906 -25.609375 0.578125 -25.609375 C 0.429688 -25.609375 0.285156 -25.597656 0.140625 -25.578125 C 0.00390625 -25.566406 -0.132812 -25.5625 -0.28125 -25.5625 C -0.882812 -25.5625 -1.488281 -25.550781 -2.09375 -25.53125 C -2.695312 -25.507812 -3.304688 -25.5 -3.921875 -25.5 C -4.222656 -25.5 -4.519531 -25.519531 -4.8125 -25.5625 C -4.925781 -25.59375 -5.03125 -25.644531 -5.125 -25.71875 C -5.226562 -25.800781 -5.28125 -25.894531 -5.28125 -26 L -5.28125 -26.109375 C -5.28125 -26.316406 -5.164062 -26.460938 -4.9375 -26.546875 C -4.664062 -26.648438 -4.410156 -26.703125 -4.171875 -26.703125 C -4.003906 -26.703125 -3.835938 -26.691406 -3.671875 -26.671875 C -3.515625 -26.648438 -3.363281 -26.640625 -3.21875 -26.640625 C -3.132812 -26.640625 -3.078125 -26.625 -3.046875 -26.59375 C -2.953125 -26.507812 -2.847656 -26.46875 -2.734375 -26.46875 C -2.617188 -26.46875 -2.507812 -26.46875 -2.40625 -26.46875 L 1.96875 -26.59375 C 2.007812 -26.59375 2.050781 -26.597656 2.09375 -26.609375 C 2.132812 -26.617188 2.179688 -26.625 2.234375 -26.625 C 3.835938 -26.625 5.441406 -26.65625 7.046875 -26.71875 C 8.648438 -26.78125 10.253906 -26.8125 11.859375 -26.8125 L 12.3125 -26.8125 C 12.375 -26.882812 12.421875 -26.957031 12.453125 -27.03125 C 12.492188 -27.101562 12.535156 -27.1875 12.578125 -27.28125 C 12.972656 -28.0625 13.441406 -28.796875 13.984375 -29.484375 C 14.535156 -30.179688 15.039062 -30.90625 15.5 -31.65625 C 15.644531 -31.882812 15.804688 -32.109375 15.984375 -32.328125 C 16.171875 -32.554688 16.335938 -32.785156 16.484375 -33.015625 C 16.523438 -33.085938 16.578125 -33.144531 16.640625 -33.1875 C 16.703125 -33.238281 16.753906 -33.289062 16.796875 -33.34375 C 16.828125 -33.40625 16.894531 -33.46875 17 -33.53125 C 17.082031 -33.570312 17.15625 -33.59375 17.21875 -33.59375 C 17.289062 -33.59375 17.363281 -33.5625 17.4375 -33.5 C 17.519531 -33.445312 17.5625 -33.347656 17.5625 -33.203125 C 17.5625 -33.066406 17.523438 -32.898438 17.453125 -32.703125 C 17.410156 -32.585938 17.351562 -32.457031 17.28125 -32.3125 C 17.21875 -32.164062 17.148438 -32.035156 17.078125 -31.921875 C 16.648438 -31.140625 16.203125 -30.367188 15.734375 -29.609375 C 15.273438 -28.847656 14.828125 -28.078125 14.390625 -27.296875 L 14.171875 -26.90625 C 14.203125 -26.84375 14.234375 -26.8125 14.265625 -26.8125 C 14.304688 -26.8125 14.34375 -26.8125 14.375 -26.8125 L 17.828125 -26.890625 C 18.171875 -26.898438 18.507812 -26.898438 18.84375 -26.890625 C 19.1875 -26.890625 19.519531 -26.894531 19.84375 -26.90625 L 23.75 -26.96875 C 24.820312 -27 25.890625 -27.03125 26.953125 -27.0625 C 28.023438 -27.09375 29.097656 -27.109375 30.171875 -27.109375 C 30.492188 -27.109375 30.8125 -27.109375 31.125 -27.109375 C 31.445312 -27.117188 31.769531 -27.101562 32.09375 -27.0625 C 32.175781 -27.039062 32.257812 -27.019531 32.34375 -27 C 32.425781 -26.976562 32.507812 -26.960938 32.59375 -26.953125 Z M 13.546875 -27.140625 C 13.929688 -27.773438 14.320312 -28.398438 14.71875 -29.015625 C 15.113281 -29.640625 15.488281 -30.269531 15.84375 -30.90625 C 15.84375 -30.925781 15.847656 -30.9375 15.859375 -30.9375 C 15.867188 -30.9375 15.875 -30.945312 15.875 -30.96875 L 15.875 -31.03125 L 15.828125 -31.03125 L 15.828125 -30.984375 L 15.84375 -30.90625 C 15.832031 -30.90625 15.816406 -30.910156 15.796875 -30.921875 C 15.785156 -30.929688 15.765625 -30.925781 15.734375 -30.90625 C 15.703125 -30.875 15.679688 -30.84375 15.671875 -30.8125 C 15.660156 -30.78125 15.644531 -30.75 15.625 -30.71875 L 13.15625 -26.96875 L 13.09375 -26.796875 C 13.164062 -26.828125 13.21875 -26.84375 13.25 -26.84375 C 13.289062 -26.851562 13.332031 -26.867188 13.375 -26.890625 C 13.40625 -26.910156 13.4375 -26.941406 13.46875 -26.984375 C 13.5 -27.035156 13.523438 -27.085938 13.546875 -27.140625 Z M 12.671875 -25.84375 L 12.75 -26.046875 C 12.726562 -26.046875 12.695312 -26.046875 12.65625 -26.046875 C 12.625 -26.054688 12.597656 -26.054688 12.578125 -26.046875 C 12.535156 -26.003906 12.503906 -25.960938 12.484375 -25.921875 C 12.472656 -25.890625 12.453125 -25.847656 12.421875 -25.796875 L 11.484375 -24.34375 C 11.492188 -24.34375 11.503906 -24.335938 11.515625 -24.328125 C 11.535156 -24.328125 11.550781 -24.328125 11.5625 -24.328125 C 11.625 -24.328125 11.671875 -24.363281 11.703125 -24.4375 Z M 12.671875 -25.84375 "/></g></g></g><g fill="#000000" fill-opacity="1"><g transform="translate(261.589631, 192.621338)"><g><path d="M -2.5625 -0.0625 C -2.71875 -0.0625 -2.847656 -0.109375 -2.953125 -0.203125 C -3.054688 -0.304688 -3.109375 -0.429688 -3.109375 -0.578125 C -3.109375 -0.648438 -3.085938 -0.726562 -3.046875 -0.8125 C -3.003906 -0.90625 -2.960938 -0.988281 -2.921875 -1.0625 C -2.890625 -1.144531 -2.847656 -1.222656 -2.796875 -1.296875 C -2.429688 -1.929688 -2.050781 -2.554688 -1.65625 -3.171875 C -1.257812 -3.796875 -0.863281 -4.421875 -0.46875 -5.046875 C 0.757812 -6.984375 1.984375 -8.898438 3.203125 -10.796875 C 4.429688 -12.703125 5.660156 -14.613281 6.890625 -16.53125 C 8.066406 -18.375 9.222656 -20.226562 10.359375 -22.09375 C 11.503906 -23.957031 12.679688 -25.804688 13.890625 -27.640625 C 13.929688 -27.710938 13.972656 -27.78125 14.015625 -27.84375 C 14.054688 -27.90625 14.09375 -27.972656 14.125 -28.046875 C 14.1875 -28.203125 14.25 -28.34375 14.3125 -28.46875 C 14.375 -28.59375 14.472656 -28.703125 14.609375 -28.796875 C 14.648438 -28.828125 14.6875 -28.875 14.71875 -28.9375 C 14.75 -29 14.78125 -29.054688 14.8125 -29.109375 L 17.546875 -33.390625 C 17.617188 -33.523438 17.703125 -33.648438 17.796875 -33.765625 C 17.890625 -33.890625 17.984375 -34.007812 18.078125 -34.125 C 18.210938 -34.300781 18.351562 -34.390625 18.5 -34.390625 C 18.582031 -34.390625 18.6875 -34.351562 18.8125 -34.28125 C 19 -34.175781 19.09375 -34 19.09375 -33.75 C 19.09375 -33.644531 19.070312 -33.546875 19.03125 -33.453125 C 18.9375 -33.285156 18.8125 -33.160156 18.65625 -33.078125 C 18.488281 -33.023438 18.359375 -32.9375 18.265625 -32.8125 C 18.171875 -32.695312 18.078125 -32.566406 17.984375 -32.421875 C 17.609375 -31.785156 17.207031 -31.171875 16.78125 -30.578125 C 16.363281 -29.984375 15.941406 -29.382812 15.515625 -28.78125 L 15.40625 -28.625 C 15.21875 -28.34375 15.015625 -28.070312 14.796875 -27.8125 C 14.585938 -27.5625 14.394531 -27.289062 14.21875 -27 C 13.113281 -25.195312 11.988281 -23.40625 10.84375 -21.625 C 9.707031 -19.84375 8.570312 -18.054688 7.4375 -16.265625 C 6.269531 -14.441406 5.09375 -12.609375 3.90625 -10.765625 C 2.726562 -8.929688 1.550781 -7.09375 0.375 -5.25 C -0.0390625 -4.613281 -0.445312 -3.96875 -0.84375 -3.3125 C -1.238281 -2.664062 -1.648438 -2.019531 -2.078125 -1.375 C -2.117188 -1.3125 -2.160156 -1.238281 -2.203125 -1.15625 C -2.242188 -1.070312 -2.265625 -0.972656 -2.265625 -0.859375 C -2.148438 -0.921875 -2.046875 -0.984375 -1.953125 -1.046875 C -1.859375 -1.109375 -1.773438 -1.171875 -1.703125 -1.234375 C -1.160156 -1.722656 -0.613281 -2.222656 -0.0625 -2.734375 C 0.46875 -3.253906 1 -3.753906 1.53125 -4.234375 C 2.070312 -4.722656 2.617188 -5.195312 3.171875 -5.65625 C 3.347656 -5.800781 3.519531 -5.9375 3.6875 -6.0625 C 3.863281 -6.195312 4.046875 -6.320312 4.234375 -6.4375 C 4.328125 -6.5 4.421875 -6.550781 4.515625 -6.59375 C 4.617188 -6.644531 4.722656 -6.671875 4.828125 -6.671875 C 5.179688 -6.671875 5.359375 -6.507812 5.359375 -6.1875 L 5.359375 -6 C 5.359375 -5.914062 5.351562 -5.828125 5.34375 -5.734375 C 5.34375 -5.648438 5.332031 -5.5625 5.3125 -5.46875 C 5.289062 -5.238281 5.242188 -5 5.171875 -4.75 C 5.109375 -4.507812 5.046875 -4.265625 4.984375 -4.015625 C 4.867188 -3.515625 4.8125 -3.046875 4.8125 -2.609375 C 4.8125 -2.460938 4.820312 -2.316406 4.84375 -2.171875 C 4.863281 -2.035156 4.875 -1.894531 4.875 -1.75 C 4.875 -1.6875 4.882812 -1.640625 4.90625 -1.609375 C 4.988281 -1.429688 5.070312 -1.296875 5.15625 -1.203125 C 5.25 -1.117188 5.378906 -1.078125 5.546875 -1.078125 C 5.742188 -1.078125 5.929688 -1.113281 6.109375 -1.1875 C 6.285156 -1.257812 6.445312 -1.347656 6.59375 -1.453125 C 7 -1.703125 7.390625 -1.96875 7.765625 -2.25 C 8.148438 -2.539062 8.5 -2.875 8.8125 -3.25 C 9.039062 -3.507812 9.265625 -3.773438 9.484375 -4.046875 C 9.710938 -4.316406 9.925781 -4.59375 10.125 -4.875 C 10.1875 -4.945312 10.238281 -5.023438 10.28125 -5.109375 C 10.332031 -5.191406 10.378906 -5.269531 10.421875 -5.34375 C 10.503906 -5.476562 10.613281 -5.546875 10.75 -5.546875 C 10.96875 -5.546875 11.078125 -5.441406 11.078125 -5.234375 C 11.078125 -5.191406 11.066406 -5.144531 11.046875 -5.09375 C 11.035156 -5.050781 11.023438 -5.007812 11.015625 -4.96875 C 10.992188 -4.925781 10.957031 -4.859375 10.90625 -4.765625 C 10.1875 -3.691406 9.335938 -2.742188 8.359375 -1.921875 C 8.140625 -1.734375 7.921875 -1.5625 7.703125 -1.40625 C 7.484375 -1.25 7.253906 -1.085938 7.015625 -0.921875 C 6.867188 -0.816406 6.707031 -0.71875 6.53125 -0.625 C 6.351562 -0.539062 6.171875 -0.488281 5.984375 -0.46875 C 5.921875 -0.445312 5.851562 -0.429688 5.78125 -0.421875 C 5.707031 -0.421875 5.632812 -0.421875 5.5625 -0.421875 C 4.914062 -0.421875 4.492188 -0.710938 4.296875 -1.296875 C 4.203125 -1.617188 4.15625 -1.984375 4.15625 -2.390625 C 4.15625 -2.859375 4.207031 -3.316406 4.3125 -3.765625 C 4.425781 -4.210938 4.523438 -4.664062 4.609375 -5.125 L 4.71875 -5.6875 C 4.738281 -5.71875 4.742188 -5.75 4.734375 -5.78125 C 4.722656 -5.820312 4.71875 -5.875 4.71875 -5.9375 C 4.613281 -5.90625 4.523438 -5.863281 4.453125 -5.8125 C 4.378906 -5.757812 4.304688 -5.707031 4.234375 -5.65625 C 3.867188 -5.332031 3.5 -5.015625 3.125 -4.703125 C 2.75 -4.390625 2.378906 -4.066406 2.015625 -3.734375 C 1.554688 -3.304688 1.085938 -2.878906 0.609375 -2.453125 C 0.140625 -2.023438 -0.328125 -1.597656 -0.796875 -1.171875 C -0.941406 -1.035156 -1.09375 -0.910156 -1.25 -0.796875 C -1.40625 -0.679688 -1.554688 -0.5625 -1.703125 -0.4375 C -1.773438 -0.382812 -1.851562 -0.335938 -1.9375 -0.296875 C -2.03125 -0.265625 -2.117188 -0.21875 -2.203125 -0.15625 C -2.304688 -0.09375 -2.425781 -0.0625 -2.5625 -0.0625 Z M -2.5625 -0.0625 "/></g></g></g><g fill="#000000" fill-opacity="1"><g transform="translate(288.673051, 195.746601)"><g><path d="M 25.65625 0 L 24.3125 -16.90625 L 24.140625 -16.90625 L 18.296875 -0.171875 L 14.421875 -0.171875 L 8.578125 -16.90625 L 8.40625 -16.90625 L 7.046875 0 L 0.546875 0 L 3.109375 -28.53125 L 10.03125 -28.53125 L 16.359375 -12.0625 L 22.6875 -28.53125 L 29.59375 -28.53125 L 32.15625 0 Z M 25.65625 0 "/></g></g></g><g fill="#000000" fill-opacity="1"><g transform="translate(321.377495, 195.746601)"><g><path d="M 2.65625 -27.625 C 3.375 -28.34375 4.226562 -28.703125 5.21875 -28.703125 C 6.207031 -28.703125 7.0625 -28.34375 7.78125 -27.625 C 8.5 -26.914062 8.859375 -26.0625 8.859375 -25.0625 C 8.859375 -24.070312 8.5 -23.21875 7.78125 -22.5 C 7.0625 -21.789062 6.207031 -21.4375 5.21875 -21.4375 C 4.226562 -21.4375 3.375 -21.789062 2.65625 -22.5 C 1.945312 -23.21875 1.59375 -24.070312 1.59375 -25.0625 C 1.59375 -26.0625 1.945312 -26.914062 2.65625 -27.625 Z M 2.078125 -17.734375 L 2.078125 0 L 8.1875 0 L 8.1875 -17.734375 Z M 2.078125 -17.734375 "/></g></g></g><g fill="#000000" fill-opacity="1"><g transform="translate(331.818026, 195.746601)"><g><path d="M 22.34375 -17.734375 L 13.90625 -9.265625 L 23.171875 0 L 15.28125 0 L 8.1875 -7.09375 L 8.1875 0 L 2.078125 0 L 2.078125 -29.734375 L 8.1875 -29.734375 L 8.1875 -11.546875 L 14.390625 -17.734375 Z M 22.34375 -17.734375 "/></g></g></g><g fill="#000000" fill-opacity="1"><g transform="translate(354.15108, 195.746601)"><g><path d="M 20.015625 -8.015625 L 7.15625 -8.015625 C 7.15625 -6.773438 7.554688 -5.851562 8.359375 -5.25 C 9.171875 -4.65625 10.050781 -4.359375 11 -4.359375 C 11.988281 -4.359375 12.769531 -4.488281 13.34375 -4.75 C 13.925781 -5.019531 14.582031 -5.546875 15.3125 -6.328125 L 19.75 -4.109375 C 17.90625 -1.023438 14.835938 0.515625 10.546875 0.515625 C 7.867188 0.515625 5.570312 -0.398438 3.65625 -2.234375 C 1.75 -4.066406 0.796875 -6.269531 0.796875 -8.84375 C 0.796875 -11.425781 1.75 -13.640625 3.65625 -15.484375 C 5.570312 -17.328125 7.867188 -18.25 10.546875 -18.25 C 13.359375 -18.25 15.644531 -17.4375 17.40625 -15.8125 C 19.175781 -14.1875 20.0625 -11.867188 20.0625 -8.859375 C 20.0625 -8.441406 20.046875 -8.160156 20.015625 -8.015625 Z M 7.328125 -11.40625 L 14.078125 -11.40625 C 13.929688 -12.332031 13.566406 -13.039062 12.984375 -13.53125 C 12.398438 -14.03125 11.644531 -14.28125 10.71875 -14.28125 C 9.707031 -14.28125 8.898438 -14.015625 8.296875 -13.484375 C 7.703125 -12.953125 7.378906 -12.257812 7.328125 -11.40625 Z M 7.328125 -11.40625 "/></g></g></g><g clip-path="url(#7fda7c559a)"><path fill="#e5c100" d="M 32.78125 158.386719 L 38.996094 158.386719 L 38.996094 212.242188 L 32.78125 212.242188 Z M 32.78125 158.386719 " fill-opacity="1" fill-rule="nonzero"/></g><g clip-path="url(#9817938d03)"><path fill="#e5c100" d="M 44.085938 158.027344 L 50.261719 158.027344 L 50.261719 198.910156 L 44.085938 198.910156 Z M 44.085938 158.027344 " fill-opacity="1" fill-rule="nonzero"/></g><g clip-path="url(#7ceda4700c)"><g clip-path="url(#079db207a5)"><path fill="#e5c100" d="M 46.105469 195.578125 L 50.21875 198.992188 L 38.632812 212.960938 L 34.515625 209.546875 Z M 46.105469 195.578125 " fill-opacity="1" fill-rule="nonzero"/></g></g><g clip-path="url(#e555f0b086)"><g clip-path="url(#fdc2b4f6ac)"><g clip-path="url(#32572d8dca)"><path fill="#e5c100" d="M 32.910156 219.980469 L 43.992188 206.402344 L 32.832031 202.425781 Z M 32.910156 219.980469 " fill-opacity="1" fill-rule="nonzero"/></g></g></g><g clip-path="url(#f29a2e0afb)"><g clip-path="url(#f6b1c9a23b)"><g clip-path="url(#27a97fd76d)"><path fill="#e5c100" d="M 32.78125 202.347656 L 44.082031 206.378906 L 32.855469 220.132812 Z M 43.902344 206.429688 L 32.886719 202.5 L 32.960938 219.832031 Z M 43.902344 206.429688 " fill-opacity="1" fill-rule="nonzero"/></g></g></g><g clip-path="url(#5a7120369d)"><path fill="#e5c100" d="M 50.242188 197.917969 L 50.242188 198.96875 L 49.199219 198.96875 Z M 50.242188 197.917969 " fill-opacity="1" fill-rule="nonzero"/><path fill="#e5c100" d="M 49.1875 198.972656 L 50.246094 198.972656 L 50.246094 197.910156 Z M 50.238281 198.964844 L 49.207031 198.964844 L 50.238281 197.925781 Z M 50.238281 198.964844 " fill-opacity="1" fill-rule="nonzero"/></g><g clip-path="url(#a1a6256fe3)"><path fill="#e5c100" d="M 56.851562 154.496094 L 56.851562 159.839844 L 44.09375 159.839844 L 44.09375 154.496094 Z M 56.851562 154.496094 " fill-opacity="1" fill-rule="nonzero"/></g><g clip-path="url(#951cb6da35)"><path fill="#e5c100" d="M 38.992188 154.496094 L 38.992188 159.84375 L 0 159.84375 L 0 154.496094 Z M 38.992188 154.496094 " fill-opacity="1" fill-rule="nonzero"/></g><g fill="#000000" fill-opacity="1"><g transform="translate(55.059347, 194.345898)"><g><path d="M 20 -8.015625 L 7.15625 -8.015625 C 7.15625 -6.773438 7.554688 -5.851562 8.359375 -5.25 C 9.160156 -4.65625 10.035156 -4.359375 10.984375 -4.359375 C 11.972656 -4.359375 12.753906 -4.488281 13.328125 -4.75 C 13.910156 -5.007812 14.566406 -5.535156 15.296875 -6.328125 L 19.71875 -4.109375 C 17.882812 -1.023438 14.820312 0.515625 10.53125 0.515625 C 7.863281 0.515625 5.570312 -0.394531 3.65625 -2.21875 C 1.75 -4.050781 0.796875 -6.257812 0.796875 -8.84375 C 0.796875 -11.425781 1.75 -13.632812 3.65625 -15.46875 C 5.570312 -17.3125 7.863281 -18.234375 10.53125 -18.234375 C 13.34375 -18.234375 15.628906 -17.421875 17.390625 -15.796875 C 19.148438 -14.179688 20.03125 -11.863281 20.03125 -8.84375 C 20.03125 -8.425781 20.019531 -8.148438 20 -8.015625 Z M 7.328125 -11.40625 L 14.0625 -11.40625 C 13.925781 -12.320312 13.5625 -13.023438 12.96875 -13.515625 C 12.382812 -14.015625 11.628906 -14.265625 10.703125 -14.265625 C 9.691406 -14.265625 8.882812 -14 8.28125 -13.46875 C 7.6875 -12.9375 7.367188 -12.25 7.328125 -11.40625 Z M 7.328125 -11.40625 "/></g></g></g><g fill="#000000" fill-opacity="1"><g transform="translate(75.888996, 194.345898)"><g><path d="M 11.5 -13.234375 C 10.351562 -13.234375 9.363281 -12.804688 8.53125 -11.953125 C 7.707031 -11.097656 7.296875 -10.070312 7.296875 -8.875 C 7.296875 -7.65625 7.707031 -6.617188 8.53125 -5.765625 C 9.363281 -4.910156 10.351562 -4.484375 11.5 -4.484375 C 12.050781 -4.484375 12.570312 -4.550781 13.0625 -4.6875 C 13.5625 -4.832031 13.929688 -4.972656 14.171875 -5.109375 L 14.46875 -5.3125 L 16.546875 -1.078125 C 16.390625 -0.953125 16.164062 -0.800781 15.875 -0.625 C 15.582031 -0.457031 14.925781 -0.226562 13.90625 0.0625 C 12.882812 0.363281 11.785156 0.515625 10.609375 0.515625 C 8.003906 0.515625 5.71875 -0.394531 3.75 -2.21875 C 1.78125 -4.050781 0.796875 -6.25 0.796875 -8.8125 C 0.796875 -11.382812 1.78125 -13.597656 3.75 -15.453125 C 5.71875 -17.304688 8.003906 -18.234375 10.609375 -18.234375 C 11.785156 -18.234375 12.867188 -18.09375 13.859375 -17.8125 C 14.847656 -17.539062 15.546875 -17.269531 15.953125 -17 L 16.546875 -16.578125 L 14.46875 -12.40625 C 13.707031 -12.957031 12.71875 -13.234375 11.5 -13.234375 Z M 11.5 -13.234375 "/></g></g></g><g fill="#000000" fill-opacity="1"><g transform="translate(92.849784, 194.345898)"><g><path d="M 2.078125 0 L 2.078125 -29.703125 L 8.1875 -29.703125 L 8.1875 -15.859375 L 8.25 -15.859375 C 9.84375 -17.441406 11.535156 -18.234375 13.328125 -18.234375 C 14.203125 -18.234375 15.070312 -18.117188 15.9375 -17.890625 C 16.800781 -17.660156 17.628906 -17.300781 18.421875 -16.8125 C 19.222656 -16.332031 19.867188 -15.648438 20.359375 -14.765625 C 20.859375 -13.878906 21.109375 -12.847656 21.109375 -11.671875 L 21.109375 0 L 15 0 L 15 -10.015625 C 15 -10.941406 14.703125 -11.75 14.109375 -12.4375 C 13.523438 -13.125 12.757812 -13.46875 11.8125 -13.46875 C 10.894531 -13.46875 10.0625 -13.109375 9.3125 -12.390625 C 8.5625 -11.679688 8.1875 -10.890625 8.1875 -10.015625 L 8.1875 0 Z M 2.078125 0 "/></g></g></g><g fill="#000000" fill-opacity="1"><g transform="translate(115.682948, 194.345898)"><g><path d="M 0.28125 -22.796875 L 0.28125 -28.5 L 20.3125 -28.5 L 20.3125 -22.796875 L 13.546875 -22.796875 L 13.546875 0 L 7.046875 0 L 7.046875 -22.796875 Z M 0.28125 -22.796875 "/></g></g></g><g fill="#000000" fill-opacity="1"><g transform="translate(136.270792, 194.345898)"><g><path d="M 2.078125 0 L 2.078125 -29.703125 L 8.1875 -29.703125 L 8.1875 -15.859375 L 8.25 -15.859375 C 9.84375 -17.441406 11.535156 -18.234375 13.328125 -18.234375 C 14.203125 -18.234375 15.070312 -18.117188 15.9375 -17.890625 C 16.800781 -17.660156 17.628906 -17.300781 18.421875 -16.8125 C 19.222656 -16.332031 19.867188 -15.648438 20.359375 -14.765625 C 20.859375 -13.878906 21.109375 -12.847656 21.109375 -11.671875 L 21.109375 0 L 15 0 L 15 -10.015625 C 15 -10.941406 14.703125 -11.75 14.109375 -12.4375 C 13.523438 -13.125 12.757812 -13.46875 11.8125 -13.46875 C 10.894531 -13.46875 10.0625 -13.109375 9.3125 -12.390625 C 8.5625 -11.679688 8.1875 -10.890625 8.1875 -10.015625 L 8.1875 0 Z M 2.078125 0 "/></g></g></g><g fill="#000000" fill-opacity="1"><g transform="translate(159.103956, 194.345898)"><g><path d="M 2.078125 0 L 2.078125 -17.71875 L 8.1875 -17.71875 L 8.1875 -15.171875 L 8.25 -15.171875 C 8.300781 -15.253906 8.378906 -15.363281 8.484375 -15.5 C 8.585938 -15.644531 8.8125 -15.890625 9.15625 -16.234375 C 9.5 -16.578125 9.863281 -16.882812 10.25 -17.15625 C 10.644531 -17.4375 11.15625 -17.6875 11.78125 -17.90625 C 12.40625 -18.125 13.039062 -18.234375 13.6875 -18.234375 C 14.351562 -18.234375 15.003906 -18.140625 15.640625 -17.953125 C 16.285156 -17.773438 16.757812 -17.59375 17.0625 -17.40625 L 17.546875 -17.140625 L 15 -11.953125 C 14.238281 -12.597656 13.175781 -12.921875 11.8125 -12.921875 C 11.070312 -12.921875 10.4375 -12.757812 9.90625 -12.4375 C 9.382812 -12.113281 9.015625 -11.722656 8.796875 -11.265625 C 8.578125 -10.804688 8.421875 -10.414062 8.328125 -10.09375 C 8.234375 -9.769531 8.1875 -9.515625 8.1875 -9.328125 L 8.1875 0 Z M 2.078125 0 "/></g></g></g><g fill="#000000" fill-opacity="1"><g transform="translate(176.306548, 194.345898)"><g><path d="M 2.65625 -27.59375 C 3.375 -28.3125 4.226562 -28.671875 5.21875 -28.671875 C 6.207031 -28.671875 7.054688 -28.3125 7.765625 -27.59375 C 8.484375 -26.882812 8.84375 -26.035156 8.84375 -25.046875 C 8.84375 -24.054688 8.484375 -23.203125 7.765625 -22.484375 C 7.054688 -21.773438 6.207031 -21.421875 5.21875 -21.421875 C 4.226562 -21.421875 3.375 -21.773438 2.65625 -22.484375 C 1.945312 -23.203125 1.59375 -24.054688 1.59375 -25.046875 C 1.59375 -26.035156 1.945312 -26.882812 2.65625 -27.59375 Z M 2.078125 -17.71875 L 2.078125 0 L 8.1875 0 L 8.1875 -17.71875 Z M 2.078125 -17.71875 "/></g></g></g><g fill="#000000" fill-opacity="1"><g transform="translate(186.738635, 194.345898)"><g><path d="M 6.5625 -17.71875 L 10.875 -8.078125 L 15.203125 -17.71875 L 22.453125 -17.71875 L 12.953125 0 L 8.8125 0 L -0.6875 -17.71875 Z M 6.5625 -17.71875 "/></g></g></g><g fill="#000000" fill-opacity="1"><g transform="translate(208.500951, 194.345898)"><g><path d="M 20 -8.015625 L 7.15625 -8.015625 C 7.15625 -6.773438 7.554688 -5.851562 8.359375 -5.25 C 9.160156 -4.65625 10.035156 -4.359375 10.984375 -4.359375 C 11.972656 -4.359375 12.753906 -4.488281 13.328125 -4.75 C 13.910156 -5.007812 14.566406 -5.535156 15.296875 -6.328125 L 19.71875 -4.109375 C 17.882812 -1.023438 14.820312 0.515625 10.53125 0.515625 C 7.863281 0.515625 5.570312 -0.394531 3.65625 -2.21875 C 1.75 -4.050781 0.796875 -6.257812 0.796875 -8.84375 C 0.796875 -11.425781 1.75 -13.632812 3.65625 -15.46875 C 5.570312 -17.3125 7.863281 -18.234375 10.53125 -18.234375 C 13.34375 -18.234375 15.628906 -17.421875 17.390625 -15.796875 C 19.148438 -14.179688 20.03125 -11.863281 20.03125 -8.84375 C 20.03125 -8.425781 20.019531 -8.148438 20 -8.015625 Z M 7.328125 -11.40625 L 14.0625 -11.40625 C 13.925781 -12.320312 13.5625 -13.023438 12.96875 -13.515625 C 12.382812 -14.015625 11.628906 -14.265625 10.703125 -14.265625 C 9.691406 -14.265625 8.882812 -14 8.28125 -13.46875 C 7.6875 -12.9375 7.367188 -12.25 7.328125 -11.40625 Z M 7.328125 -11.40625 "/></g></g></g></svg>