<svg xmlns="http://www.w3.org/2000/svg" xmlns:xlink="http://www.w3.org/1999/xlink" width="500" zoomAndPan="magnify" viewBox="0 0 375 374.999991" height="500" preserveAspectRatio="xMidYMid meet" version="1.0"><defs><clipPath id="595c34701f"><path d="M 206.808594 54.75 L 234.367188 54.75 L 234.367188 293.613281 L 206.808594 293.613281 Z M 206.808594 54.75 " clip-rule="nonzero"/></clipPath><clipPath id="6805b0e51f"><path d="M 256.941406 53.171875 L 284.328125 53.171875 L 284.328125 234.464844 L 256.941406 234.464844 Z M 256.941406 53.171875 " clip-rule="nonzero"/></clipPath><clipPath id="ded5d1f15d"><path d="M 214 219 L 285 219 L 285 297 L 214 297 Z M 214 219 " clip-rule="nonzero"/></clipPath><clipPath id="e0161fb8da"><path d="M 265.902344 219.707031 L 284.148438 234.847656 L 232.746094 296.800781 L 214.496094 281.660156 Z M 265.902344 219.707031 " clip-rule="nonzero"/></clipPath><clipPath id="093e9df4a5"><path d="M 207 250 L 257 250 L 257 328 L 207 328 Z M 207 250 " clip-rule="nonzero"/></clipPath><clipPath id="ec6136401d"><path d="M 232.019531 337.476562 L 181.800781 319.566406 L 206.5 250.296875 L 256.71875 268.203125 Z M 232.019531 337.476562 " clip-rule="nonzero"/></clipPath><clipPath id="e9973bccf7"><path d="M 232.019531 337.476562 L 181.800781 319.566406 L 206.5 250.296875 L 256.71875 268.203125 Z M 232.019531 337.476562 " clip-rule="nonzero"/></clipPath><clipPath id="5670c84bb2"><path d="M 206 250 L 257 250 L 257 329 L 206 329 Z M 206 250 " clip-rule="nonzero"/></clipPath><clipPath id="70077da608"><path d="M 232.019531 337.476562 L 181.800781 319.566406 L 206.5 250.296875 L 256.71875 268.203125 Z M 232.019531 337.476562 " clip-rule="nonzero"/></clipPath><clipPath id="700cfbff1f"><path d="M 232.019531 337.476562 L 181.800781 319.566406 L 206.5 250.296875 L 256.71875 268.203125 Z M 232.019531 337.476562 " clip-rule="nonzero"/></clipPath><clipPath id="b14e13f257"><path d="M 279.578125 230.035156 L 284.261719 230.035156 L 284.261719 235 L 279.578125 235 Z M 279.578125 230.035156 " clip-rule="nonzero"/></clipPath><clipPath id="c71529f041"><path d="M 256.929688 37.496094 L 313.566406 37.496094 L 313.566406 61.210938 L 256.929688 61.210938 Z M 256.929688 37.496094 " clip-rule="nonzero"/></clipPath><clipPath id="3a0672d6d7"><path d="M 61.40625 37.5 L 234.355469 37.5 L 234.355469 61.214844 L 61.40625 61.214844 Z M 61.40625 37.5 " clip-rule="nonzero"/></clipPath></defs><g clip-path="url(#595c34701f)"><path fill="#e5c100" d="M 206.808594 54.75 L 234.367188 54.75 L 234.367188 293.621094 L 206.808594 293.621094 Z M 206.808594 54.75 " fill-opacity="1" fill-rule="nonzero"/></g><g clip-path="url(#6805b0e51f)"><path fill="#e5c100" d="M 256.941406 53.171875 L 284.328125 53.171875 L 284.328125 234.484375 L 256.941406 234.484375 Z M 256.941406 53.171875 " fill-opacity="1" fill-rule="nonzero"/></g><g clip-path="url(#ded5d1f15d)"><g clip-path="url(#e0161fb8da)"><path fill="#e5c100" d="M 265.902344 219.707031 L 284.148438 234.847656 L 232.753906 296.792969 L 214.503906 281.652344 Z M 265.902344 219.707031 " fill-opacity="1" fill-rule="nonzero"/></g></g><g clip-path="url(#093e9df4a5)"><g clip-path="url(#ec6136401d)"><g clip-path="url(#e9973bccf7)"><path fill="#e5c100" d="M 207.375 327.941406 L 256.519531 267.71875 L 207.039062 250.074219 Z M 207.375 327.941406 " fill-opacity="1" fill-rule="nonzero"/></g></g></g><g clip-path="url(#5670c84bb2)"><g clip-path="url(#70077da608)"><g clip-path="url(#700cfbff1f)"><path fill="#e5c100" d="M 206.796875 249.738281 L 256.917969 267.609375 L 207.140625 328.601562 Z M 256.125 267.832031 L 207.277344 250.414062 L 207.609375 327.277344 Z M 256.125 267.832031 " fill-opacity="1" fill-rule="nonzero"/></g></g></g><g clip-path="url(#b14e13f257)"><path fill="#e5c100" d="M 284.246094 230.082031 L 284.246094 234.746094 L 279.617188 234.746094 Z M 284.246094 230.082031 " fill-opacity="1" fill-rule="nonzero"/><path fill="#e5c100" d="M 279.578125 234.761719 L 284.261719 234.761719 L 284.261719 230.042969 Z M 284.230469 234.730469 L 279.652344 234.730469 L 284.230469 230.121094 Z M 284.230469 234.730469 " fill-opacity="1" fill-rule="nonzero"/></g><g clip-path="url(#c71529f041)"><path fill="#e5c100" d="M 313.566406 37.496094 L 313.566406 61.210938 L 256.972656 61.210938 L 256.972656 37.496094 Z M 313.566406 37.496094 " fill-opacity="1" fill-rule="nonzero"/></g><g clip-path="url(#3a0672d6d7)"><path fill="#e5c100" d="M 234.355469 37.5 L 234.355469 61.214844 L 61.425781 61.214844 L 61.425781 37.5 Z M 234.355469 37.5 " fill-opacity="1" fill-rule="nonzero"/></g></svg>