<svg xmlns="http://www.w3.org/2000/svg" xmlns:xlink="http://www.w3.org/1999/xlink" width="500" zoomAndPan="magnify" viewBox="0 0 375 374.999991" height="500" preserveAspectRatio="xMidYMid meet" version="1.0"><defs><g/><clipPath id="d75da2cede"><path d="M 101.910156 160.1875 L 107.582031 160.1875 L 107.582031 209.332031 L 101.910156 209.332031 Z M 101.910156 160.1875 " clip-rule="nonzero"/></clipPath><clipPath id="b02dc3d609"><path d="M 112.226562 159.863281 L 117.859375 159.863281 L 117.859375 197.164062 L 112.226562 197.164062 Z M 112.226562 159.863281 " clip-rule="nonzero"/></clipPath><clipPath id="284658da15"><path d="M 103 194 L 118 194 L 118 210 L 103 210 Z M 103 194 " clip-rule="nonzero"/></clipPath><clipPath id="58e9a337fc"><path d="M 114.070312 194.125 L 117.824219 197.242188 L 107.246094 209.988281 L 103.492188 206.871094 Z M 114.070312 194.125 " clip-rule="nonzero"/></clipPath><clipPath id="ffca8f4c2e"><path d="M 101 200 L 113 200 L 113 217 L 101 217 Z M 101 200 " clip-rule="nonzero"/></clipPath><clipPath id="298b83f1ab"><path d="M 107.097656 218.355469 L 96.765625 214.671875 L 101.847656 200.417969 L 112.179688 204.105469 Z M 107.097656 218.355469 " clip-rule="nonzero"/></clipPath><clipPath id="74492444ce"><path d="M 107.097656 218.355469 L 96.765625 214.671875 L 101.847656 200.417969 L 112.179688 204.105469 Z M 107.097656 218.355469 " clip-rule="nonzero"/></clipPath><clipPath id="ec2381d473"><path d="M 116.882812 196.25 L 117.847656 196.25 L 117.847656 197.386719 L 116.882812 197.386719 Z M 116.882812 196.25 " clip-rule="nonzero"/></clipPath><clipPath id="8dec945b72"><path d="M 112.222656 156.636719 L 123.875 156.636719 L 123.875 161.515625 L 112.222656 161.515625 Z M 112.222656 156.636719 " clip-rule="nonzero"/></clipPath><clipPath id="cc2b149d71"><path d="M 72 156.640625 L 107.578125 156.640625 L 107.578125 161.515625 L 72 161.515625 Z M 72 156.640625 " clip-rule="nonzero"/></clipPath></defs><g clip-path="url(#d75da2cede)"><path fill="#e5c100" d="M 101.910156 160.1875 L 107.582031 160.1875 L 107.582031 209.332031 L 101.910156 209.332031 Z M 101.910156 160.1875 " fill-opacity="1" fill-rule="nonzero"/></g><g clip-path="url(#b02dc3d609)"><path fill="#e5c100" d="M 112.226562 159.863281 L 117.859375 159.863281 L 117.859375 197.167969 L 112.226562 197.167969 Z M 112.226562 159.863281 " fill-opacity="1" fill-rule="nonzero"/></g><g clip-path="url(#284658da15)"><g clip-path="url(#58e9a337fc)"><path fill="#e5c100" d="M 114.070312 194.125 L 117.824219 197.242188 L 107.25 209.984375 L 103.492188 206.871094 Z M 114.070312 194.125 " fill-opacity="1" fill-rule="nonzero"/></g></g><g clip-path="url(#ffca8f4c2e)"><g clip-path="url(#298b83f1ab)"><g clip-path="url(#74492444ce)"><path fill="#e5c100" d="M 102.027344 216.394531 L 112.140625 204.003906 L 101.957031 200.375 Z M 102.027344 216.394531 " fill-opacity="1" fill-rule="nonzero"/><path fill="#e5c100" d="M 101.910156 200.304688 L 112.21875 203.980469 L 101.980469 216.53125 Z M 112.058594 204.027344 L 102.007812 200.445312 L 102.074219 216.257812 Z M 112.058594 204.027344 " fill-opacity="1" fill-rule="nonzero"/></g></g></g><g clip-path="url(#ec2381d473)"><path fill="#e5c100" d="M 117.84375 196.261719 L 117.84375 197.21875 L 116.890625 197.21875 Z M 117.84375 196.261719 " fill-opacity="1" fill-rule="nonzero"/><path fill="#e5c100" d="M 116.882812 197.222656 L 117.847656 197.222656 L 117.847656 196.253906 Z M 117.839844 197.21875 L 116.898438 197.21875 L 117.839844 196.269531 Z M 117.839844 197.21875 " fill-opacity="1" fill-rule="nonzero"/></g><g clip-path="url(#8dec945b72)"><path fill="#e5c100" d="M 123.875 156.636719 L 123.875 161.515625 L 112.230469 161.515625 L 112.230469 156.636719 Z M 123.875 156.636719 " fill-opacity="1" fill-rule="nonzero"/></g><g clip-path="url(#cc2b149d71)"><path fill="#e5c100" d="M 107.578125 156.640625 L 107.578125 161.515625 L 72 161.515625 L 72 156.640625 Z M 107.578125 156.640625 " fill-opacity="1" fill-rule="nonzero"/></g><g fill="#ffffff" fill-opacity="1"><g transform="translate(123.417731, 194.688943)"><g><path d="M 19.4375 -7.78125 L 6.953125 -7.78125 C 6.953125 -6.570312 7.34375 -5.675781 8.125 -5.09375 C 8.90625 -4.519531 9.753906 -4.234375 10.671875 -4.234375 C 11.628906 -4.234375 12.390625 -4.359375 12.953125 -4.609375 C 13.515625 -4.867188 14.15625 -5.378906 14.875 -6.140625 L 19.171875 -4 C 17.378906 -1 14.398438 0.5 10.234375 0.5 C 7.640625 0.5 5.410156 -0.382812 3.546875 -2.15625 C 1.691406 -3.9375 0.765625 -6.078125 0.765625 -8.578125 C 0.765625 -11.085938 1.691406 -13.238281 3.546875 -15.03125 C 5.410156 -16.820312 7.640625 -17.71875 10.234375 -17.71875 C 12.960938 -17.71875 15.179688 -16.925781 16.890625 -15.34375 C 18.609375 -13.769531 19.46875 -11.519531 19.46875 -8.59375 C 19.46875 -8.1875 19.457031 -7.914062 19.4375 -7.78125 Z M 7.109375 -11.078125 L 13.65625 -11.078125 C 13.519531 -11.972656 13.164062 -12.660156 12.59375 -13.140625 C 12.03125 -13.617188 11.300781 -13.859375 10.40625 -13.859375 C 9.414062 -13.859375 8.628906 -13.597656 8.046875 -13.078125 C 7.472656 -12.566406 7.160156 -11.898438 7.109375 -11.078125 Z M 7.109375 -11.078125 "/></g></g></g><g fill="#ffffff" fill-opacity="1"><g transform="translate(143.654247, 194.688943)"><g><path d="M 11.171875 -12.859375 C 10.054688 -12.859375 9.09375 -12.441406 8.28125 -11.609375 C 7.476562 -10.785156 7.078125 -9.789062 7.078125 -8.625 C 7.078125 -7.4375 7.476562 -6.425781 8.28125 -5.59375 C 9.09375 -4.769531 10.054688 -4.359375 11.171875 -4.359375 C 11.710938 -4.359375 12.222656 -4.425781 12.703125 -4.5625 C 13.179688 -4.695312 13.535156 -4.832031 13.765625 -4.96875 L 14.0625 -5.171875 L 16.078125 -1.046875 C 15.921875 -0.929688 15.703125 -0.789062 15.421875 -0.625 C 15.140625 -0.457031 14.5 -0.226562 13.5 0.0625 C 12.507812 0.351562 11.441406 0.5 10.296875 0.5 C 7.773438 0.5 5.554688 -0.382812 3.640625 -2.15625 C 1.722656 -3.9375 0.765625 -6.070312 0.765625 -8.5625 C 0.765625 -11.0625 1.722656 -13.210938 3.640625 -15.015625 C 5.554688 -16.816406 7.773438 -17.71875 10.296875 -17.71875 C 11.441406 -17.71875 12.492188 -17.582031 13.453125 -17.3125 C 14.421875 -17.050781 15.101562 -16.785156 15.5 -16.515625 L 16.078125 -16.109375 L 14.0625 -12.046875 C 13.320312 -12.585938 12.359375 -12.859375 11.171875 -12.859375 Z M 11.171875 -12.859375 "/></g></g></g><g fill="#ffffff" fill-opacity="1"><g transform="translate(160.132072, 194.688943)"><g><path d="M 2.015625 0 L 2.015625 -28.859375 L 7.953125 -28.859375 L 7.953125 -15.40625 L 8.015625 -15.40625 C 9.566406 -16.945312 11.210938 -17.71875 12.953125 -17.71875 C 13.804688 -17.71875 14.648438 -17.601562 15.484375 -17.375 C 16.328125 -17.15625 17.132812 -16.8125 17.90625 -16.34375 C 18.675781 -15.875 19.300781 -15.207031 19.78125 -14.34375 C 20.257812 -13.488281 20.5 -12.488281 20.5 -11.34375 L 20.5 0 L 14.5625 0 L 14.5625 -9.734375 C 14.5625 -10.628906 14.273438 -11.410156 13.703125 -12.078125 C 13.140625 -12.753906 12.398438 -13.09375 11.484375 -13.09375 C 10.585938 -13.09375 9.773438 -12.742188 9.046875 -12.046875 C 8.316406 -11.359375 7.953125 -10.585938 7.953125 -9.734375 L 7.953125 0 Z M 2.015625 0 "/></g></g></g><g fill="#ffffff" fill-opacity="1"><g transform="translate(182.315056, 194.688943)"><g><path d="M 0.265625 -22.15625 L 0.265625 -27.6875 L 19.734375 -27.6875 L 19.734375 -22.15625 L 13.15625 -22.15625 L 13.15625 0 L 6.84375 0 L 6.84375 -22.15625 Z M 0.265625 -22.15625 "/></g></g></g><g fill="#ffffff" fill-opacity="1"><g transform="translate(202.316653, 194.688943)"><g><path d="M 2.015625 0 L 2.015625 -28.859375 L 7.953125 -28.859375 L 7.953125 -15.40625 L 8.015625 -15.40625 C 9.566406 -16.945312 11.210938 -17.71875 12.953125 -17.71875 C 13.804688 -17.71875 14.648438 -17.601562 15.484375 -17.375 C 16.328125 -17.15625 17.132812 -16.8125 17.90625 -16.34375 C 18.675781 -15.875 19.300781 -15.207031 19.78125 -14.34375 C 20.257812 -13.488281 20.5 -12.488281 20.5 -11.34375 L 20.5 0 L 14.5625 0 L 14.5625 -9.734375 C 14.5625 -10.628906 14.273438 -11.410156 13.703125 -12.078125 C 13.140625 -12.753906 12.398438 -13.09375 11.484375 -13.09375 C 10.585938 -13.09375 9.773438 -12.742188 9.046875 -12.046875 C 8.316406 -11.359375 7.953125 -10.585938 7.953125 -9.734375 L 7.953125 0 Z M 2.015625 0 "/></g></g></g><g fill="#ffffff" fill-opacity="1"><g transform="translate(224.499638, 194.688943)"><g><path d="M 2.015625 0 L 2.015625 -17.21875 L 7.953125 -17.21875 L 7.953125 -14.734375 L 8.015625 -14.734375 C 8.066406 -14.828125 8.140625 -14.9375 8.234375 -15.0625 C 8.335938 -15.195312 8.554688 -15.429688 8.890625 -15.765625 C 9.222656 -16.109375 9.578125 -16.410156 9.953125 -16.671875 C 10.335938 -16.941406 10.832031 -17.179688 11.4375 -17.390625 C 12.039062 -17.609375 12.660156 -17.71875 13.296875 -17.71875 C 13.941406 -17.71875 14.578125 -17.628906 15.203125 -17.453125 C 15.828125 -17.273438 16.285156 -17.097656 16.578125 -16.921875 L 17.046875 -16.640625 L 14.5625 -11.609375 C 13.820312 -12.234375 12.796875 -12.546875 11.484375 -12.546875 C 10.765625 -12.546875 10.144531 -12.390625 9.625 -12.078125 C 9.113281 -11.765625 8.75 -11.382812 8.53125 -10.9375 C 8.320312 -10.488281 8.171875 -10.109375 8.078125 -9.796875 C 7.992188 -9.484375 7.953125 -9.238281 7.953125 -9.0625 L 7.953125 0 Z M 2.015625 0 "/></g></g></g><g fill="#ffffff" fill-opacity="1"><g transform="translate(241.212382, 194.688943)"><g><path d="M 2.578125 -26.8125 C 3.273438 -27.507812 4.101562 -27.859375 5.0625 -27.859375 C 6.03125 -27.859375 6.859375 -27.507812 7.546875 -26.8125 C 8.242188 -26.125 8.59375 -25.296875 8.59375 -24.328125 C 8.59375 -23.367188 8.242188 -22.539062 7.546875 -21.84375 C 6.859375 -21.15625 6.03125 -20.8125 5.0625 -20.8125 C 4.101562 -20.8125 3.273438 -21.15625 2.578125 -21.84375 C 1.890625 -22.539062 1.546875 -23.367188 1.546875 -24.328125 C 1.546875 -25.296875 1.890625 -26.125 2.578125 -26.8125 Z M 2.015625 -17.21875 L 2.015625 0 L 7.953125 0 L 7.953125 -17.21875 Z M 2.015625 -17.21875 "/></g></g></g><g fill="#ffffff" fill-opacity="1"><g transform="translate(251.347419, 194.688943)"><g><path d="M 6.375 -17.21875 L 10.578125 -7.859375 L 14.765625 -17.21875 L 21.8125 -17.21875 L 12.578125 0 L 8.5625 0 L -0.671875 -17.21875 Z M 6.375 -17.21875 "/></g></g></g><g fill="#ffffff" fill-opacity="1"><g transform="translate(272.490053, 194.688943)"><g><path d="M 19.4375 -7.78125 L 6.953125 -7.78125 C 6.953125 -6.570312 7.34375 -5.675781 8.125 -5.09375 C 8.90625 -4.519531 9.753906 -4.234375 10.671875 -4.234375 C 11.628906 -4.234375 12.390625 -4.359375 12.953125 -4.609375 C 13.515625 -4.867188 14.15625 -5.378906 14.875 -6.140625 L 19.171875 -4 C 17.378906 -1 14.398438 0.5 10.234375 0.5 C 7.640625 0.5 5.410156 -0.382812 3.546875 -2.15625 C 1.691406 -3.9375 0.765625 -6.078125 0.765625 -8.578125 C 0.765625 -11.085938 1.691406 -13.238281 3.546875 -15.03125 C 5.410156 -16.820312 7.640625 -17.71875 10.234375 -17.71875 C 12.960938 -17.71875 15.179688 -16.925781 16.890625 -15.34375 C 18.609375 -13.769531 19.46875 -11.519531 19.46875 -8.59375 C 19.46875 -8.1875 19.457031 -7.914062 19.4375 -7.78125 Z M 7.109375 -11.078125 L 13.65625 -11.078125 C 13.519531 -11.972656 13.164062 -12.660156 12.59375 -13.140625 C 12.03125 -13.617188 11.300781 -13.859375 10.40625 -13.859375 C 9.414062 -13.859375 8.628906 -13.597656 8.046875 -13.078125 C 7.472656 -12.566406 7.160156 -11.898438 7.109375 -11.078125 Z M 7.109375 -11.078125 "/></g></g></g></svg>